<svg width="35" height="35" viewBox="0 0 35 35" fill="none" xmlns="http://www.w3.org/2000/svg">
<g id="Building A Wall - iconSvg.co">
<g id="Group">
<path id="Vector" d="M31.9884 31.8082C32.2337 31.4625 32.0618 28.1307 32.0402 27.7045V27.704C32.0249 27.413 31.8011 27.1798 31.5188 27.1626C29.8662 27.0646 28.1427 26.9702 26.4912 26.9499C26.5555 26.3276 26.4813 24.2008 26.4538 23.6076C27.6678 23.6097 28.5788 23.5573 29.8211 23.5645C30.025 23.4288 30.5095 23.1305 30.559 23.0963C30.9365 22.8338 30.7406 19.3371 30.7181 18.8917C30.7035 18.5986 30.4791 18.3657 30.1967 18.3498C22.3913 17.8819 24.0953 18.3587 18.6612 18.0801C20.6264 16.9257 21.2301 14.3462 21.3764 12.262C21.6135 11.9777 21.8332 11.6099 21.9128 11.1624C22.0184 10.5707 21.8269 9.68511 22.0044 9.55177C22.1823 9.88095 22.7234 9.85578 23.1102 9.72816C23.5063 9.59742 23.8541 9.35488 24.1958 9.11545C29.8183 5.17677 29.944 5.13991 30.4159 4.59206C30.6094 4.36742 30.7682 4.10776 30.8748 3.83151C31.64 2.49276 30.6094 1.22765 29.1615 1.40901C27.2658 1.65596 22.3475 6.3246 20.9616 7.63539C20.8942 7.69894 20.7663 7.95393 20.7728 8.12124C20.7748 8.17779 20.792 8.23097 20.8166 8.28C20.332 8.76974 20.3173 9.17495 20.2444 9.68907C20.1956 10.0336 20.1401 10.4149 20.0719 10.701C18.6823 10.7168 17.2107 10.7503 15.694 10.8019C14.7819 10.8288 13.8663 11.0628 13.0452 11.4794C11.8299 12.0989 8.69356 14.946 7.12962 17.8765C3.52449 17.7551 2.25315 17.9763 1.93154 17.9937C1.79354 18.0051 1.53622 18.0264 1.38576 18.3372C1.22364 18.6713 1.23142 21.3675 1.23583 21.6199C1.25373 22.5607 1.2903 22.7994 1.58784 22.8722C1.73725 23.06 1.88615 23.2639 2.03608 23.4333C3.52112 23.6177 5.09621 23.6279 6.59918 23.6297C6.54237 24.7039 6.50839 26.1949 6.57869 26.8532C5.40337 26.8538 4.34631 26.8927 3.21169 26.9998C2.69082 27.0467 2.56838 27.4231 2.5785 27.9453C2.58524 28.3043 2.49108 29.0436 2.52169 30.6254C2.54763 31.8902 2.62285 31.8409 3.12324 31.9226C7.99241 33.4271 25.9597 33.3263 32.7491 32.9921C32.9332 32.983 33.0103 32.7324 32.8712 32.6017C32.499 32.2523 32.2915 32.0681 31.9882 31.8082L31.9884 31.8082ZM29.2569 2.14124C30.18 2.01854 30.7544 2.77962 30.1437 3.60477C29.8156 4.04678 29.6205 4.12227 25.5988 6.7762C25.3329 6.24235 24.8743 5.80474 24.333 5.5526C25.1672 4.82731 28.1464 2.28521 29.2569 2.14124ZM23.6993 6.10928C24.259 6.24676 24.7454 6.65973 24.9729 7.18891L22.6547 8.71858C22.6054 8.29083 22.3512 7.90563 21.9865 7.6841C22.545 7.1596 23.1144 6.6317 23.6993 6.10928H23.6993ZM21.2537 19.0087C24.0484 18.7441 27.0943 18.9047 29.9881 19.0764C30.0187 19.6969 30.0975 21.8722 30.0462 22.486C28.8807 22.6372 21.2932 22.4969 21.2208 22.486C21.1549 21.6406 21.2475 19.0585 21.2535 19.0087L21.2537 19.0087ZM25.706 23.4236C25.7371 24.0563 25.8149 26.2301 25.7641 26.8332C24.8158 26.9585 17.3259 26.8913 16.938 26.8332C16.8566 25.7845 16.965 23.4063 16.9712 23.3565C19.765 23.093 22.7117 23.2478 25.7057 23.4237L25.706 23.4236ZM20.3989 18.9132C20.4742 20.6157 20.4576 22.273 20.4526 22.324C19.4638 22.4545 12.0669 22.3878 11.6292 22.3235C11.5859 21.7453 11.5906 20.716 11.6145 20.1339C13.1659 19.9456 15.244 19.4597 17.1308 18.7503C17.8301 18.7635 19.6966 18.8706 20.399 18.9132L20.3989 18.9132ZM7.86077 18.0655C7.95753 17.9264 9.09188 15.7599 11.4581 13.6606C12.0776 13.1127 12.6469 12.5099 13.379 12.1366C14.1035 11.7696 14.9113 11.5629 15.717 11.5395C16.9823 11.4959 18.2129 11.4658 19.3924 11.4479C19.1507 11.6344 18.8941 11.8041 18.7164 11.8767C18.5281 11.954 18.4378 12.1693 18.5146 12.3582C18.5929 12.5486 18.81 12.6362 18.996 12.56C19.4313 12.3818 20.6084 11.5592 20.7633 10.9826C20.8531 10.6472 20.9179 10.1932 20.9747 9.79244C21.0007 9.60982 21.025 9.43628 21.0502 9.28946C21.0979 9.00957 21.4237 8.59817 21.8237 8.53329C21.8662 8.59814 21.9031 8.66688 21.9243 8.74133C21.6738 8.79918 21.2414 9.12291 21.1941 9.7444C21.1612 10.1724 21.2499 10.6772 21.1864 11.0325C21.032 11.8995 20.1247 12.4079 19.3755 12.8185C19.1967 12.9161 19.1314 13.1405 19.2294 13.3192C19.3285 13.5008 19.5557 13.5622 19.7301 13.4652C20.0097 13.3122 20.294 13.1524 20.5674 12.9687C20.0893 16.7827 18.4733 17.4444 16.9358 18.0348C12.6173 19.6729 8.74521 19.6993 8.0506 19.4358C7.38215 19.1943 7.51364 18.682 7.86046 18.0654L7.86077 18.0655ZM1.99963 22.2C1.93218 21.3082 2.00819 18.943 2.03387 18.7249C2.10857 18.721 3.74954 18.5135 6.86154 18.6055C6.54299 20.4955 9.03242 20.3697 10.8174 20.212C10.8246 20.5378 10.8669 21.7033 10.8241 22.2002C9.67368 22.3538 2.32941 22.2485 1.99937 22.2L1.99963 22.2ZM12.112 31.2074C11.1594 31.3332 3.67373 31.2647 3.28658 31.2079C3.21499 30.285 3.29825 27.9094 3.31926 27.7307C6.13144 27.4645 9.20113 27.6303 12.0543 27.7979C12.0847 28.4168 12.1631 30.5972 12.112 31.2074ZM7.3092 26.7107C7.23502 25.7553 7.32581 23.3641 7.34241 23.234C10.1649 22.9676 13.223 23.1333 16.0768 23.3012C16.1098 23.9692 16.1852 26.1086 16.1349 26.7107C15.1666 26.8386 7.68208 26.7665 7.30887 26.7107L7.3092 26.7107ZM21.7612 31.2987C20.8702 31.4165 13.3356 31.3584 12.9351 31.2992C12.8537 30.2471 12.9621 27.8713 12.9683 27.8215C15.8303 27.5589 18.7532 27.7159 21.7028 27.8892C21.7339 28.5218 21.8104 30.7094 21.7609 31.2987L21.7612 31.2987ZM31.3675 31.2987C30.4765 31.4162 22.9446 31.3586 22.5421 31.2992C22.4853 30.567 22.5323 28.1836 22.5748 27.8215C25.4446 27.5589 28.3636 27.7159 31.3099 27.8892C31.3421 28.5501 31.4178 30.6969 31.3675 31.2987Z" fill="#396827"/>
<path id="Vector_2" d="M9.85782 17.8051C10.0301 17.914 10.2586 17.8624 10.367 17.6907C11.1035 16.526 12.1107 15.5242 13.2795 14.7929C13.4526 14.6848 13.505 14.457 13.3968 14.2845C13.2886 14.112 13.0609 14.0596 12.8884 14.1673C11.6261 14.9566 10.5384 16.0386 9.74316 17.2956C9.63448 17.4684 9.68584 17.6961 9.85782 17.8051Z" fill="#396827"/>
</g>
</g>
</svg>
