<svg width="24" height="24" viewBox="0 0 24 24" fill="none" xmlns="http://www.w3.org/2000/svg">
<g id="13271248721603537671 (1) 1">
<path id="Vector" d="M4.91025 2.66992V5.49992L3.36026 6.39992C3.06172 6.55509 2.80715 6.78306 2.62012 7.06274C2.43308 7.34241 2.31963 7.66476 2.29026 7.99992V21.3299C2.28221 21.3975 2.28962 21.4661 2.3119 21.5304C2.33418 21.5947 2.37077 21.6531 2.41891 21.7013C2.46704 21.7494 2.52547 21.786 2.58979 21.8083C2.65412 21.8306 2.72266 21.838 2.79026 21.8299H20.9302C20.9963 21.8313 21.0619 21.8193 21.1232 21.7946C21.1844 21.77 21.2401 21.7332 21.2868 21.6865C21.3335 21.6398 21.3703 21.5841 21.3949 21.5229C21.4196 21.4616 21.4316 21.3959 21.4302 21.3299V7.99992C21.4127 7.67167 21.3117 7.35332 21.1367 7.07506C20.9617 6.7968 20.7185 6.56786 20.4302 6.40992L18.8202 5.47992V2.66992C18.8202 2.53732 18.7675 2.41014 18.6738 2.31637C18.58 2.2226 18.4528 2.16992 18.3202 2.16992H5.41025C5.27845 2.17248 5.15275 2.22598 5.05953 2.3192C4.96632 2.41242 4.91281 2.53812 4.91025 2.66992ZM3.81026 7.27992L4.91025 6.63992V9.93992L3.80026 9.15992C3.64017 9.04745 3.51001 8.89753 3.42112 8.72323C3.33223 8.54894 3.2873 8.35555 3.29026 8.15992C3.28976 7.98003 3.33781 7.80334 3.42932 7.64846C3.52084 7.49359 3.65244 7.36627 3.81026 7.27992ZM3.29026 9.99991L11.0002 15.4299L3.32026 20.4299L3.29026 9.99991ZM4.48026 20.7999L11.8602 15.9999L19.2402 20.7899L4.48026 20.7999ZM18.8102 6.63992L19.9202 7.27992C20.075 7.37388 20.2032 7.50593 20.2925 7.66349C20.3817 7.82104 20.4292 7.99884 20.4302 8.17992C20.434 8.3757 20.3895 8.5694 20.3005 8.74384C20.2116 8.91828 20.0809 9.06807 19.9202 9.17992L18.8102 9.95992V6.63992ZM20.4302 9.99991V20.4099L12.7602 15.4099L20.4302 9.99991ZM5.91025 3.16992H17.8102V10.6499L11.8602 14.8399L5.91025 10.6499V3.16992Z" fill="black"/>
<path id="Vector_2" d="M12.5999 12.4199H11.3999C11.2681 12.4225 11.1424 12.476 11.0492 12.5692C10.956 12.6624 10.9025 12.7881 10.8999 12.9199C10.8999 13.0525 10.9526 13.1797 11.0464 13.2735C11.1401 13.3672 11.2673 13.4199 11.3999 13.4199H12.5999C12.7325 13.4199 12.8597 13.3672 12.9535 13.2735C13.0472 13.1797 13.0999 13.0525 13.0999 12.9199C13.0974 12.7881 13.0439 12.6624 12.9506 12.5692C12.8574 12.476 12.7317 12.4225 12.5999 12.4199Z" fill="black"/>
<path id="Vector_3" d="M13.76 4.70971C13.323 4.47716 12.8436 4.33515 12.3505 4.2922C11.8574 4.24924 11.3606 4.30622 10.89 4.45971C10.054 4.72726 9.3391 5.28107 8.87115 6.0237C8.40319 6.76634 8.21213 7.65021 8.33158 8.51982C8.45103 9.38943 8.87334 10.1891 9.52421 10.778C10.1751 11.367 11.0128 11.7075 11.89 11.7397C12.0201 11.7373 12.1444 11.6852 12.2374 11.5941C12.3303 11.503 12.3849 11.3798 12.39 11.2497C12.3927 11.1188 12.344 10.992 12.2542 10.8966C12.1645 10.8013 12.0409 10.7449 11.91 10.7397C11.4997 10.7279 11.0974 10.6237 10.733 10.4349C10.3685 10.2462 10.0513 9.97762 9.80498 9.64932C9.55865 9.32102 9.38951 8.94141 9.31015 8.53871C9.23078 8.13602 9.24324 7.72062 9.34659 7.32341C9.44995 6.92619 9.64153 6.5574 9.9071 6.24445C10.1727 5.93151 10.5054 5.68247 10.8805 5.51587C11.2556 5.34927 11.6635 5.26939 12.0737 5.28217C12.4839 5.29496 12.886 5.40008 13.25 5.58971C13.8293 5.8595 14.2789 6.3466 14.5017 6.94552C14.7244 7.54445 14.7022 8.207 14.44 8.78971C14.3919 8.92822 14.3033 9.04904 14.1855 9.13644C14.0678 9.22384 13.9265 9.27376 13.78 9.27971C13.7583 9.27894 13.737 9.27312 13.7179 9.26271C13.6988 9.25229 13.6824 9.23757 13.67 9.21971C13.6086 9.15859 13.5728 9.07632 13.57 8.98971C13.57 8.78971 13.57 6.04971 13.57 6.14971C13.57 6.01711 13.5173 5.88993 13.4236 5.79616C13.3298 5.70239 13.2026 5.64971 13.07 5.64971C12.9504 5.65093 12.8352 5.69498 12.7453 5.77387C12.6554 5.85277 12.5967 5.96128 12.58 6.07971C12.3451 5.94719 12.0797 5.87826 11.81 5.87971C11.2918 5.92808 10.8128 6.17658 10.4748 6.57243C10.1369 6.96828 9.9665 7.48029 9.99997 7.99971C9.95841 8.52569 10.1264 9.04678 10.4673 9.44948C10.8082 9.85218 11.2944 10.1039 11.82 10.1497C12.1878 10.1363 12.5403 9.99888 12.82 9.75971C12.8538 9.8321 12.8976 9.89941 12.95 9.95971C13.0565 10.0697 13.1839 10.1573 13.3247 10.2174C13.4655 10.2775 13.6169 10.3089 13.77 10.3097C14.1183 10.3045 14.4568 10.1937 14.7407 9.99191C15.0246 9.79013 15.2406 9.50691 15.36 9.17971C15.7265 8.3728 15.7644 7.45491 15.4657 6.62053C15.167 5.78614 14.5553 5.10081 13.76 4.70971ZM11.84 9.12971C11.44 9.12971 11.02 8.66971 11.02 7.97971C10.9941 7.72354 11.068 7.46725 11.2264 7.26421C11.3847 7.06117 11.6153 6.92703 11.87 6.88971C12.31 6.88971 12.61 7.32971 12.62 7.94971V7.99971C12.61 8.60971 12.27 9.12971 11.84 9.12971Z" fill="black"/>
</g>
</svg>
