<svg width="34" height="35" viewBox="0 0 34 35" fill="none" xmlns="http://www.w3.org/2000/svg">
<g id="Electrician License - iconSvg.co">
<g id="Group">
<path id="Vector" d="M26.5689 9.0705H25.6209C24.9648 6.04224 22.7641 3.59198 19.8772 2.59722V5.4999H18.9613L18.961 3.90224C18.961 3.90198 18.9618 3.90094 18.9618 3.90068L18.9616 2.34923C18.9616 2.34845 18.9608 2.34793 18.9608 2.34767L18.961 2.33626C18.9603 2.336 18.959 2.336 18.9584 2.33548C18.9413 1.87816 18.077 1.50879 17.0093 1.50879C15.946 1.50879 15.0848 1.87506 15.0615 2.32977C15.0581 2.33081 15.0555 2.33107 15.0532 2.33185V5.49989H14.1372L14.137 2.59096C11.2408 3.58161 9.03198 6.03605 8.37489 9.07048H7.42681C6.68054 9.07048 6.0769 9.67541 6.0769 10.4201C6.0769 11.1651 6.68079 11.77 7.42681 11.77H26.5697C27.3148 11.77 27.9196 11.1651 27.9196 10.4201C27.9194 9.67538 27.3142 9.07048 26.5692 9.07048L26.5689 9.0705ZM15.8091 10.1893L16.7401 7.65213L15.404 7.64072L16.5624 4.62335L17.8986 4.63476L17.2543 6.34811L18.5904 6.35952L15.8091 10.1893Z" fill="#396827"/>
<path id="Vector_2" d="M23.4392 19.5872C21.9707 20.9026 20.0997 21.7755 18.0354 21.9973L16.9975 26.0709L15.9596 21.997C13.8951 21.7752 12.0237 20.9026 10.5558 19.5869C5.96497 22.0253 2.8122 26.9886 2.77368 32.7261H31.2215C31.1825 26.9887 28.0298 22.0254 23.4393 19.5869L23.4392 19.5872Z" fill="#396827"/>
<path id="Vector_3" d="M16.9978 20.2988C21.309 20.2988 24.8078 16.8283 24.8576 12.5293H9.13794C9.188 16.8283 12.6868 20.2988 16.9978 20.2988Z" fill="#396827"/>
</g>
</g>
</svg>
