<svg width="40" height="40" viewBox="0 0 40 40" fill="none" xmlns="http://www.w3.org/2000/svg">
<g id="Ethics">
<path id="Vector" d="M34.6138 10.4044C35.2119 10.0906 35.625 9.47062 35.625 8.75C35.625 7.71625 34.7837 6.875 33.75 6.875C32.9362 6.875 32.2487 7.39937 31.99 8.125H26.8431C26.5263 4.62625 23.58 1.875 20 1.875C16.42 1.875 13.4738 4.62625 13.1569 8.125H8.01C7.75125 7.39937 7.06375 6.875 6.25 6.875C5.21625 6.875 4.375 7.71625 4.375 8.75C4.375 9.47062 4.78813 10.0906 5.38625 10.4044L0.67875 20.9963C0.643125 21.0763 0.625 21.1625 0.625 21.25C0.625 24.3512 3.14875 26.875 6.25 26.875C9.35125 26.875 11.875 24.3512 11.875 21.25C11.875 21.1625 11.8569 21.0763 11.8212 20.9963L7.11375 10.4044C7.52938 10.1862 7.85063 9.82188 8.01 9.375H13.1569C13.3281 11.2631 14.2631 12.9325 15.6525 14.07L17.4388 33.125H7.5C6.12125 33.125 5 34.2463 5 35.625C5 37.0037 6.12125 38.125 7.5 38.125H32.5C33.8787 38.125 35 37.0037 35 35.625C35 34.2463 33.8787 33.125 32.5 33.125H22.5612L24.3475 14.07C25.7369 12.9325 26.6719 11.2625 26.8431 9.375H31.99C32.1494 9.82188 32.4706 10.1862 32.8862 10.4044L28.1787 20.9963C28.1431 21.0763 28.125 21.1625 28.125 21.25C28.125 24.3512 30.6488 26.875 33.75 26.875C36.8512 26.875 39.375 24.3512 39.375 21.25C39.375 21.1625 39.3569 21.0763 39.3213 20.9963L34.6138 10.4044ZM33.75 8.125C34.0944 8.125 34.375 8.40562 34.375 8.75C34.375 9.09438 34.0944 9.375 33.75 9.375C33.4056 9.375 33.125 9.09438 33.125 8.75C33.125 8.40562 33.4056 8.125 33.75 8.125ZM6.25 8.125C6.59438 8.125 6.875 8.40562 6.875 8.75C6.875 9.09438 6.59438 9.375 6.25 9.375C5.90562 9.375 5.625 9.09438 5.625 8.75C5.625 8.40562 5.90562 8.125 6.25 8.125ZM6.25 11.5387L10.2881 20.625H2.21187L6.25 11.5387ZM6.25 25.625C4.05 25.625 2.22688 23.9919 1.92188 21.875H10.5775C10.2731 23.9919 8.45 25.625 6.25 25.625ZM16.9875 14.92C17.7213 15.2794 18.5244 15.5156 19.375 15.5931V33.125H18.6944L16.9875 14.92ZM33.75 35.625C33.75 36.3144 33.1894 36.875 32.5 36.875H7.5C6.81063 36.875 6.25 36.3144 6.25 35.625C6.25 34.9356 6.81063 34.375 7.5 34.375H32.5C33.1894 34.375 33.75 34.9356 33.75 35.625ZM21.3056 33.125H20.625V15.5931C21.4756 15.5162 22.2794 15.28 23.0125 14.92L21.3056 33.125ZM20 14.375C16.8988 14.375 14.375 11.8512 14.375 8.75C14.375 5.64875 16.8988 3.125 20 3.125C23.1012 3.125 25.625 5.64875 25.625 8.75C25.625 11.8512 23.1012 14.375 20 14.375ZM37.7881 20.625H29.7119L33.75 11.5387L37.7881 20.625ZM33.75 25.625C31.55 25.625 29.7269 23.9919 29.4219 21.875H38.0775C37.7731 23.9919 35.95 25.625 33.75 25.625Z" fill="#192D48"/>
<path id="Vector_2" d="M20.625 6.33875V4.375H19.375V6.33875C18.3 6.61813 17.5 7.58875 17.5 8.75C17.5 10.1287 18.6212 11.25 20 11.25C21.3788 11.25 22.5 10.1287 22.5 8.75C22.5 7.58875 21.7 6.61813 20.625 6.33875ZM20 10C19.3106 10 18.75 9.43937 18.75 8.75C18.75 8.06063 19.3106 7.5 20 7.5C20.6894 7.5 21.25 8.06063 21.25 8.75C21.25 9.43937 20.6894 10 20 10Z" fill="#192D48"/>
</g>
</svg>
