<svg width="86" height="86" viewBox="0 0 86 86" fill="none" xmlns="http://www.w3.org/2000/svg">
<rect x="0.5" y="0.5" width="85" height="85" rx="9.5" stroke="#D9D9D9"/>
<g clip-path="url(#clip0_65_5505)">
<path d="M63.0207 43.3938C63.0207 41.6731 62.8811 40.4174 62.5789 39.1152H42.9299V46.8817H54.4634C54.231 48.8118 52.9753 51.7184 50.1849 53.6716L50.1458 53.9316L56.3584 58.7445L56.7888 58.7874C60.7418 55.1366 63.0207 49.7651 63.0207 43.3938Z" fill="#4285F4"/>
<path d="M42.93 63.8552C48.5804 63.8552 53.324 61.9948 56.7889 58.786L50.1849 53.6702C48.4177 54.9026 46.0458 55.763 42.93 55.763C37.3958 55.763 32.6987 52.1123 31.0243 47.0664L30.7788 47.0872L24.3189 52.0867L24.2344 52.3215C27.6758 59.1579 34.7448 63.8552 42.93 63.8552Z" fill="#34A853"/>
<path d="M31.0243 47.0669C30.5825 45.7647 30.3269 44.3694 30.3269 42.9278C30.3269 41.486 30.5825 40.0909 31.0011 38.7887L30.9894 38.5114L24.4485 33.4316L24.2344 33.5334C22.8161 36.3704 22.0022 39.5561 22.0022 42.9278C22.0022 46.2995 22.8161 49.4851 24.2344 52.322L31.0243 47.0669Z" fill="#FBBC05"/>
<path d="M42.93 30.0921C46.8597 30.0921 49.5105 31.7895 51.022 33.2081L56.9283 27.4412C53.3009 24.0695 48.5804 22 42.93 22C34.7448 22 27.6758 26.6971 24.2344 33.5335L31.001 38.7888C32.6987 33.7428 37.3958 30.0921 42.93 30.0921Z" fill="#EB4335"/>
</g>
<defs>
<clipPath id="clip0_65_5505">
<rect width="41.0424" height="42" fill="white" transform="translate(22 22)"/>
</clipPath>
</defs>
</svg>
