<svg width="40" height="40" viewBox="0 0 40 40" fill="none" xmlns="http://www.w3.org/2000/svg">
<g id="inclusion">
<g id="Group">
<path id="Vector" d="M27.7999 21.05C27.3999 21.9625 26.8125 22.8125 26.0624 23.5625C22.7124 26.9125 17.2875 26.9125 13.9375 23.5625C13.1874 22.8125 12.6 21.9625 12.2 21.05C13.6374 18.2 16.5875 16.25 19.9999 16.25C23.4124 16.25 26.3625 18.2 27.7999 21.05Z" fill="#FFC943"/>
<path id="Vector_2" d="M20 16.25C22.4162 16.25 24.375 14.2912 24.375 11.875C24.375 9.45875 22.4162 7.5 20 7.5C17.5838 7.5 15.625 9.45875 15.625 11.875C15.625 14.2912 17.5838 16.25 20 16.25Z" fill="#FFC943"/>
<path id="Vector_3" fill-rule="evenodd" clip-rule="evenodd" d="M35 17.5C35 18.2249 34.9625 18.95 34.8625 19.675L32.4125 20.4C32.1125 21.75 31.5625 23.05 30.8375 24.25L32.0375 26.475C31.1875 27.6375 30.1375 28.6875 28.9625 29.55L26.75 28.35C25.55 29.0625 24.2375 29.625 22.8875 29.925L22.175 32.3625C20.7125 32.55 19.2875 32.55 17.825 32.3625L17.1125 29.925C15.7625 29.625 14.45 29.0625 13.25 28.35L11.0375 29.55C9.86252 28.6875 8.81248 27.6375 7.96249 26.475L9.16252 24.25C8.4375 23.05 7.8875 21.75 7.58751 20.4L5.13748 19.675C5.03754 18.95 5 18.2249 5 17.5H11.425C11.425 18.7125 11.675 19.925 12.2 21.05C12.6 21.9625 13.1875 22.8125 13.9375 23.5625C17.2875 26.9125 22.7125 26.9125 26.0625 23.5625C26.8125 22.8125 27.4 21.9625 27.8 21.05C28.325 19.925 28.575 18.7125 28.575 17.5H35Z" fill="#43B3FF"/>
</g>
<g id="Group_2">
<path id="Vector_4" d="M21.9885 13.8647C22.2327 13.6206 22.2327 13.2251 21.9885 12.981C21.7444 12.7368 21.3489 12.7368 21.1047 12.981C20.5139 13.5718 19.4861 13.5718 18.8953 12.981C18.6511 12.7368 18.2556 12.7368 18.0115 12.981C17.7673 13.2251 17.7673 13.6206 18.0115 13.8647C18.5425 14.3958 19.2487 14.6887 20 14.6887C20.7513 14.6887 21.4575 14.3958 21.9885 13.8647Z" fill="#192D48"/>
<path id="Vector_5" d="M32.5415 26.843C32.6843 26.6489 32.7014 26.3901 32.5879 26.1777L31.5552 24.2637C32.1826 23.1663 32.6465 22.0359 32.9358 20.897L35.0391 20.2744C35.2747 20.2048 35.448 20.0034 35.481 19.7605C35.5774 19.0598 35.625 18.3201 35.625 17.4998C35.625 17.1543 35.3455 16.8748 35 16.8748H28.5754C28.23 16.8748 27.9504 17.1543 27.9504 17.4998C27.9504 18.2241 27.8477 18.93 27.6631 19.608C26.4607 17.8865 24.7303 16.6477 22.7519 16.0438C24.1042 15.1481 25 13.6165 25 11.876C25 9.11841 22.7576 6.87598 20 6.87598C17.243 6.87598 15 9.11841 15 11.876C15 13.6164 15.8958 15.148 17.2482 16.0438C15.2699 16.6476 13.5397 17.8861 12.3373 19.6073C12.1528 18.9294 12.0502 18.2236 12.0502 17.4998C12.0502 17.1543 11.7706 16.8748 11.4252 16.8748H5C4.65454 16.8748 4.375 17.1543 4.375 17.4998C4.375 18.3225 4.422 19.0623 4.51843 19.7605C4.552 20.0034 4.72473 20.2048 4.95972 20.2744L7.0636 20.897C7.35413 22.0383 7.81799 23.1675 8.44543 24.2637L7.41272 26.1777C7.29797 26.3901 7.31567 26.6489 7.45789 26.843C8.33862 28.0491 9.44824 29.1587 10.6677 30.0535C10.8624 30.1963 11.1224 30.2158 11.3354 30.0986L13.2397 29.0659C14.3573 29.697 15.4895 30.1609 16.615 30.449L17.038 31.8882C17.1356 32.219 17.4805 32.4106 17.8137 32.3118C18.1445 32.2153 18.3344 31.8674 18.2373 31.5366L17.7124 29.7495C17.6477 29.531 17.4701 29.365 17.2479 29.3149C16.0297 29.0439 14.7919 28.5386 13.5693 27.8123C13.3789 27.6987 13.1445 27.6963 12.9523 27.8L11.0938 28.8083C10.2045 28.115 9.38782 27.2983 8.703 26.4182L9.71252 24.5469C9.8175 24.3528 9.81201 24.116 9.69727 23.9268C8.97766 22.7354 8.4729 21.5037 8.19763 20.2646C8.14819 20.0425 7.98218 19.8655 7.76489 19.8008L5.70801 19.1917C5.672 18.8511 5.64758 18.4971 5.63538 18.1248H10.8209C10.9686 20.3562 11.9055 22.4253 13.4955 24.0037C15.2338 25.7419 17.5439 26.7002 20 26.7002C22.4561 26.7002 24.7656 25.7419 26.5027 24.0049C28.0945 22.4265 29.032 20.3574 29.1797 18.1248H34.3652C34.3518 18.4971 34.3274 18.8511 34.292 19.1917L32.2351 19.8008C32.0166 19.8655 31.8506 20.0425 31.8018 20.2646C31.5283 21.5012 31.0229 22.7341 30.3027 23.9268C30.188 24.116 30.1819 24.3528 30.2869 24.5469L31.2964 26.4182C30.6116 27.2996 29.7949 28.115 28.9062 28.8083L27.0483 27.8C26.8555 27.6951 26.6211 27.7 26.4307 27.8123C25.2087 28.5386 23.9709 29.0439 22.7515 29.3149C22.5293 29.365 22.3511 29.531 22.2876 29.7495L21.7627 31.5366C21.665 31.8674 21.8542 32.2153 22.1863 32.3118C22.2449 32.3289 22.3035 32.3374 22.3621 32.3374C22.6331 32.3374 22.8821 32.1604 22.9614 31.8882L23.385 30.449C24.5105 30.1609 25.6433 29.697 26.7603 29.0659L28.6646 30.0986C28.8757 30.2146 29.1357 30.1963 29.3323 30.0535C30.5505 29.1599 31.6614 28.0503 32.5415 26.843ZM16.25 11.876C16.25 9.80811 17.9321 8.12598 20 8.12598C22.0679 8.12598 23.75 9.80811 23.75 11.876C23.75 13.9414 22.0717 15.6212 20.0072 15.6252C20.0047 15.6252 20.0024 15.6248 20 15.6248C19.9976 15.6248 19.9953 15.6252 19.9928 15.6252C17.9283 15.6212 16.25 13.9414 16.25 11.876ZM25.6201 23.1199C24.1174 24.6226 22.1216 25.4502 20 25.4502C17.8778 25.4502 15.8813 24.6226 14.3774 23.1187C13.7708 22.5162 13.2804 21.8281 12.9042 21.0848C14.3298 18.4884 17.0121 16.8779 19.9928 16.8752C19.9953 16.8752 19.9976 16.876 20 16.876C20.0024 16.876 20.0047 16.8752 20.0072 16.8752C22.9885 16.8779 25.6705 18.4885 27.0959 21.085C26.7193 21.8285 26.2282 22.5168 25.6201 23.1199Z" fill="#192D48"/>
<path id="Vector_6" d="M28.0286 34.8483C21.5161 38.3737 13.3087 37.1738 8.06763 31.9321C4.88037 28.7448 3.125 24.5078 3.125 19.9997C3.125 15.5832 4.81903 11.4332 7.88452 8.2692V8.50922C7.88452 8.85468 8.16406 9.13422 8.50952 9.13422C8.85498 9.13422 9.13452 8.85468 9.13452 8.50922V6.74164C9.13452 6.39618 8.85498 6.11664 8.50952 6.11664H6.74194C6.39648 6.11664 6.11694 6.39618 6.11694 6.74164C6.11694 7.0871 6.39648 7.36664 6.74194 7.36664H7.01775C3.70491 10.7686 1.875 15.2414 1.875 19.9997C1.875 24.841 3.76038 29.393 7.18384 32.8159C10.6531 36.2851 15.3326 38.1052 20.0507 38.1052C22.9883 38.1052 25.9399 37.3996 28.6243 35.947C28.927 35.7834 29.0405 35.4038 28.8757 35.0998C28.7122 34.7958 28.3325 34.686 28.0286 34.8483ZM32.8162 7.18354C27.1863 1.55366 18.3685 0.265814 11.3763 4.05243C11.0724 4.21601 10.9595 4.59565 11.1237 4.8996C11.2885 5.20356 11.6693 5.31464 11.9708 5.15107C18.4827 1.62568 26.6907 2.82563 31.9324 8.06733C35.1196 11.2546 36.875 15.4916 36.875 19.9997C36.875 24.4162 35.181 28.5662 32.1155 31.7302V31.4902C32.1155 31.1447 31.8359 30.8652 31.4905 30.8652C31.145 30.8652 30.8655 31.1447 30.8655 31.4902V33.2578C30.8655 33.6032 31.145 33.8828 31.4905 33.8828H33.2581C33.6035 33.8828 33.8831 33.6032 33.8831 33.2578C33.8831 32.9123 33.6035 32.6328 33.2581 32.6328H32.9823C36.2956 29.2308 38.125 24.758 38.125 19.9997C38.125 15.1584 36.2402 10.6064 32.8162 7.18354Z" fill="#192D48"/>
<path id="Vector_7" d="M20 33.125C20.3452 33.125 20.625 32.8452 20.625 32.5C20.625 32.1548 20.3452 31.875 20 31.875C19.6548 31.875 19.375 32.1548 19.375 32.5C19.375 32.8452 19.6548 33.125 20 33.125Z" fill="#192D48"/>
</g>
</g>
</svg>
