<svg width="35" height="35" viewBox="0 0 35 35" fill="none" xmlns="http://www.w3.org/2000/svg">
<g id="Industrial Cement Trolley - iconSvg.co">
<g id="Group">
<path id="Vector" fill-rule="evenodd" clip-rule="evenodd" d="M9.07174 11.2734H29.9313C25.9578 19.7303 22.3032 18.9566 13.9108 18.9566C10.4922 18.4441 11.0081 15.9844 9.07141 11.2734H9.07174Z" fill="#396827"/>
<path id="Vector_2" d="M13.1159 20.3761C13.0754 20.0907 12.8111 19.8923 12.5257 19.933C12.2404 19.9735 12.042 20.2378 12.0827 20.5232L12.8482 25.8557C12.8886 26.141 13.1529 26.3394 13.4383 26.2987C13.7236 26.2582 13.9221 25.9939 13.8813 25.7086L13.1159 20.3761Z" fill="#396827"/>
<path id="Vector_3" d="M14.6446 26.4048C14.9333 26.4048 15.1673 26.1708 15.1673 25.8821C15.1673 25.5934 14.9333 25.3594 14.6446 25.3594H12.3227C12.034 25.3594 11.8 25.5934 11.8 25.8821C11.8 26.1708 12.034 26.4048 12.3227 26.4048H14.6446Z" fill="#396827"/>
<path id="Vector_4" d="M12.9586 25.4653C12.7781 25.6871 12.8139 26.0114 13.0382 26.1896C13.2626 26.3678 13.591 26.3325 13.7713 26.111L18.0639 20.8418C18.2444 20.62 18.2086 20.2957 17.9842 20.1175C17.7599 19.9393 17.4315 19.9746 17.2512 20.1961L12.9586 25.4653Z" fill="#396827"/>
<path id="Vector_5" d="M5.36168 8.80911C5.07296 8.80911 4.83899 9.04309 4.83899 9.3318C4.83899 9.62051 5.07296 9.85449 5.36168 9.85449H6.71338L8.917 16.6757L8.91571 16.677C8.92349 16.7006 8.93257 16.7235 8.9432 16.7453L10.5017 20.6414L10.5004 20.642C10.5834 20.8497 10.7847 20.9745 10.9958 20.9706H29.5391C29.8278 20.9706 30.0618 20.7366 30.0618 20.4479C30.0618 20.1592 29.8278 19.9252 29.5391 19.9252H11.3378L9.9109 16.3577L9.91038 16.3559H9.91012L9.90208 16.3362L7.6007 9.21144C7.54649 8.98057 7.33923 8.80859 7.09176 8.80859H5.36128L5.36168 8.80911Z" fill="#396827"/>
<path id="Vector_6" d="M7.97814 11.2734C7.68942 11.2734 7.45544 11.5074 7.45544 11.7961C7.45544 12.0848 7.68942 12.3188 7.97814 12.3188H10.9861C11.2749 12.3188 11.5088 12.0848 11.5088 11.7961C11.5088 11.5074 11.2749 11.2734 10.9861 11.2734H7.97814Z" fill="#396827"/>
<path id="Vector_7" d="M27.0918 15.1348C27.0072 14.8595 26.7156 14.7052 26.4404 14.7898C26.1652 14.8743 26.0108 15.1659 26.0954 15.4411L27.6552 20.5061C27.7397 20.7813 28.0313 20.9357 28.3065 20.8511C28.5817 20.7665 28.7361 20.475 28.6515 20.1998L27.0918 15.1348Z" fill="#396827"/>
<path id="Vector_8" fill-rule="evenodd" clip-rule="evenodd" d="M24.6779 22.7683C24.9845 22.8648 25.2517 23.0497 25.4499 23.2928C25.6779 23.5726 25.8146 23.9296 25.8146 24.3177C25.8146 24.7664 25.6328 25.1727 25.3386 25.4666C25.0444 25.7607 24.6382 25.9426 24.1897 25.9426C23.7409 25.9426 23.3347 25.7607 23.0408 25.4666C22.7469 25.1727 22.5648 24.7662 22.5648 24.3177C22.5648 23.9296 22.7015 23.5727 22.9295 23.2928C23.1277 23.0494 23.3949 22.8648 23.7015 22.7683C23.7536 22.7517 23.8071 22.7379 23.8615 22.7268C23.956 22.7076 24.4237 22.7076 24.5181 22.7268C24.5726 22.7379 24.6257 22.7519 24.6781 22.7683H24.6779ZM24.6779 21.6546C24.4649 21.6334 23.9142 21.6334 23.7013 21.6546C23.6774 21.657 23.6577 21.6598 23.6432 21.6627C23.0216 21.7903 22.4777 22.1311 22.092 22.605C21.7125 23.0712 21.485 23.6649 21.485 24.3111C21.485 25.0579 21.7877 25.7342 22.2772 26.2236C22.7667 26.7131 23.443 27.0159 24.1898 27.0159C24.9366 27.0159 25.6129 26.7132 26.1023 26.2236C26.5918 25.7341 26.8946 25.0579 26.8946 24.3111C26.8946 23.6649 26.6671 23.0709 26.2876 22.605C25.9016 22.1311 25.3579 21.7902 24.7364 21.6627C24.7219 21.6598 24.7022 21.657 24.6783 21.6546H24.6779Z" fill="#396827"/>
<path id="Vector_9" fill-rule="evenodd" clip-rule="evenodd" d="M23.7522 20.4482H24.6266V24.3273H23.7522V20.4482Z" fill="#396827"/>
<path id="Vector_10" fill-rule="evenodd" clip-rule="evenodd" d="M24.7922 24.3279C24.7922 24.6607 24.5224 24.9305 24.1899 24.9305C23.8571 24.9305 23.5873 24.6607 23.5873 24.3279C23.5873 23.9954 23.8571 23.7256 24.1899 23.7256C24.5224 23.7256 24.7922 23.9954 24.7922 24.3279Z" fill="#396827"/>
</g>
</g>
</svg>
