<svg width="35" height="35" viewBox="0 0 35 35" fill="none" xmlns="http://www.w3.org/2000/svg">
<g id="Landscaping - iconSvg.co">
<path id="Vector" d="M19.3878 29.1003C19.5253 29.3478 19.4402 29.6599 19.1958 29.8031C18.9517 29.9465 18.6379 29.8689 18.4887 29.6282C17.1137 27.4542 15.0675 25.7875 12.6603 24.8812C10.2528 23.9747 7.61545 23.8776 5.1484 24.6047C4.87136 24.6729 4.59095 24.5056 4.51935 24.2294C4.44776 23.9531 4.61169 23.6706 4.88692 23.5959C14.5683 21.0657 19.3409 29.022 19.3881 29.1004L19.3878 29.1003ZM30.376 25.5928C28.5927 24.8537 26.5914 24.8405 24.7984 25.5562C25.58 26.6897 26.2189 27.9151 26.7011 29.2049C26.7821 29.4767 26.6306 29.7634 26.3605 29.8503C26.0905 29.9369 25.8005 29.7919 25.7079 29.5237C22.6394 21.792 15.5351 17.119 5.20561 18.4411C4.92131 18.4715 4.66528 18.2686 4.62974 17.9851C4.59421 17.7016 4.79213 17.4419 5.07487 17.401C11.8344 16.5333 16.6329 18.2217 19.9678 20.5739C20.2544 20.4157 20.5494 20.2725 20.8513 20.1454C20.8513 20.1244 20.8096 17.5055 20.8096 17.4845L18.1959 17.2964H18.1956C18.0434 17.284 17.9035 17.2061 17.8133 17.0827C17.723 16.9592 17.6908 16.8025 17.7253 16.6534C18.4049 13.6215 19.9575 7.56767 20.8306 4.58802H20.8304C20.8957 4.3639 21.1014 4.20981 21.3349 4.20981C21.5684 4.20981 21.7738 4.3639 21.8394 4.58802L22.4825 6.9143C24.9081 1.40982 29.3675 5.05857 29.2367 10.7252C29.2367 14.0709 27.867 16.7578 26.0427 17.1863L26.0689 19.089C27.1511 19.0054 31.6257 19.4443 31.0299 20.7146L31.0294 20.7151C30.9648 20.8375 30.8537 20.9291 30.7212 20.9693C30.5886 21.0095 30.4457 20.9952 30.3238 20.9294C27.8774 19.6173 23.5125 20.0406 20.8987 21.2692C21.3952 21.6718 21.8502 22.0847 22.2736 22.4977C24.6416 21.5669 28.3165 21.175 30.7842 22.2728C31.041 22.3942 31.1541 22.6979 31.0392 22.9576C30.9243 23.2172 30.6234 23.3379 30.3608 23.2294C28.2802 22.3041 25.2169 22.576 23.0634 23.3236C23.4764 23.7835 23.8528 24.2436 24.1926 24.6932C26.2836 23.7841 28.653 23.7578 30.7637 24.6201C31.0275 24.7298 31.1544 25.031 31.0488 25.2966C30.9432 25.562 30.6439 25.6938 30.3767 25.5923L30.376 25.5928ZM25.0285 19.1524L24.9972 17.1869C24.9575 17.1812 24.9188 17.1708 24.882 17.1555L21.8553 17.4743C21.8553 17.4847 21.8919 19.764 21.8919 19.7745C22.9124 19.4562 23.9637 19.2476 25.0285 19.1524ZM23.5126 16.2458C22.1275 14.871 21.474 11.3476 21.9391 8.89067L21.3326 6.68989C20.653 8.99519 19.43 13.9249 18.8862 16.2982L20.7944 16.4393H20.7941C21.7038 16.4466 22.6128 16.3817 23.5124 16.2458L23.5126 16.2458ZM4.91289 20.4226C4.63559 20.4841 4.45816 20.756 4.51368 21.0346C4.56919 21.3134 4.83689 21.4965 5.11678 21.4473C16.0997 19.2727 22.1274 29.3875 22.1845 29.4924C22.3316 29.736 22.6465 29.8169 22.8929 29.6747C23.1394 29.5323 23.2263 29.2187 23.0888 28.9697C23.026 28.86 16.6433 18.1017 4.91273 20.4226L4.91289 20.4226Z" fill="#396827"/>
</g>
</svg>
