<svg width="40" height="40" viewBox="0 0 40 40" fill="none" xmlns="http://www.w3.org/2000/svg">
<g id="Open Book">
<path id="Vector" d="M35.2834 3.43288C34.0887 3.22711 32.879 3.12119 31.6667 3.11622C27.5307 3.11283 23.4809 4.29884 20.0001 6.53289C16.5103 4.32817 12.4611 3.17127 8.33339 3.19955C7.12114 3.20452 5.9114 3.31044 4.71673 3.51622C4.3254 3.58368 3.97103 3.78865 3.71742 4.09421C3.4638 4.39976 3.32762 4.78583 3.33339 5.18288V25.1829C3.32982 25.4278 3.38027 25.6704 3.48114 25.8936C3.58202 26.1168 3.73084 26.315 3.91702 26.4741C4.10319 26.6333 4.32216 26.7494 4.55832 26.8143C4.79448 26.8792 5.04205 26.8912 5.28339 26.8496C7.67176 26.436 10.1187 26.5046 12.4802 27.0513C14.8416 27.5981 17.0698 28.6118 19.0334 30.0329L19.2334 30.1496H19.4167C19.6016 30.2266 19.7998 30.2662 20.0001 30.2662C20.2003 30.2662 20.3986 30.2266 20.5834 30.1496H20.7667L20.9667 30.0329C22.9167 28.58 25.1384 27.5334 27.5003 26.9551C29.8622 26.3768 32.3162 26.2786 34.7167 26.6662C34.9581 26.7079 35.2056 26.6958 35.4418 26.631C35.678 26.5661 35.8969 26.4499 36.0831 26.2908C36.2693 26.1317 36.4181 25.9335 36.519 25.7103C36.6199 25.4871 36.6703 25.2444 36.6667 24.9996V4.99955C36.6494 4.61981 36.5027 4.2574 36.2511 3.97245C35.9995 3.68749 35.6581 3.49711 35.2834 3.43288ZM18.3334 25.5829C15.2499 23.9607 11.8176 23.1141 8.33339 23.1162C7.78339 23.1162 7.23339 23.1162 6.66673 23.1162V6.44955C7.22182 6.41756 7.7783 6.41756 8.33339 6.44955C11.889 6.44562 15.3671 7.48904 18.3334 9.44955V25.5829ZM33.3334 23.1829C32.7667 23.1829 32.2167 23.1829 31.6667 23.1829C28.1825 23.1807 24.7503 24.0274 21.6667 25.6496V9.44955C24.633 7.48904 28.1111 6.44562 31.6667 6.44955C32.2218 6.41756 32.7783 6.41756 33.3334 6.44955V23.1829ZM35.2834 30.0996C34.0887 29.8938 32.879 29.7879 31.6667 29.7829C27.5307 29.7795 23.4809 30.9655 20.0001 33.1996C16.5193 30.9655 12.4695 29.7795 8.33339 29.7829C7.12114 29.7879 5.9114 29.8938 4.71673 30.0996C4.49977 30.134 4.29176 30.211 4.10466 30.3261C3.91756 30.4412 3.75506 30.5921 3.6265 30.7702C3.49795 30.9484 3.40587 31.1501 3.35557 31.364C3.30526 31.5778 3.29773 31.7995 3.33339 32.0162C3.41809 32.449 3.67088 32.8306 4.03638 33.0774C4.40188 33.3242 4.85029 33.4161 5.28339 33.3329C7.67176 32.9194 10.1187 32.988 12.4802 33.5347C14.8416 34.0814 17.0698 35.0951 19.0334 36.5162C19.3157 36.7172 19.6536 36.8252 20.0001 36.8252C20.3466 36.8252 20.6845 36.7172 20.9667 36.5162C22.9304 35.0951 25.1585 34.0814 27.52 33.5347C29.8814 32.988 32.3284 32.9194 34.7167 33.3329C35.1498 33.4161 35.5982 33.3242 35.9637 33.0774C36.3292 32.8306 36.582 32.449 36.6667 32.0162C36.7024 31.7995 36.6949 31.5778 36.6446 31.364C36.5942 31.1501 36.5022 30.9484 36.3736 30.7702C36.2451 30.5921 36.0826 30.4412 35.8955 30.3261C35.7084 30.211 35.5003 30.134 35.2834 30.0996Z" fill="#192D48"/>
</g>
</svg>
