<svg width="34" height="34" viewBox="0 0 34 34" fill="none" xmlns="http://www.w3.org/2000/svg">
<g id="Plumbing Supplies - iconSvg.co">
<g id="Group">
<path id="Vector" d="M19.8164 30.1214C19.8164 31.2182 18.9282 32.1071 17.832 32.1071C16.7349 32.1071 15.8475 31.2178 15.8475 30.1214C15.8475 29.026 17.832 25.9453 17.832 25.9453C17.8322 25.9453 19.8164 29.026 19.8164 30.1214Z" fill="#396827"/>
<path id="Vector_2" d="M21.9739 16.713C21.1114 15.7304 20.7389 14.4492 20.9207 13.1994L18.2539 10.3396C16.9465 10.4389 15.6282 9.92351 14.7294 8.96165L14.5323 8.75206C13.3141 7.44731 13.0075 5.56064 13.7432 3.93967C13.8524 3.69998 14.0179 3.49687 14.215 3.33216C14.1154 3.32956 14.0179 3.31737 13.918 3.31737H8.51002V1.89355H5.31787V13.0259H8.51002V11.6025H11.4571C12.6949 11.6695 13.6819 12.6853 13.6819 13.9408C13.6819 13.9408 13.6874 13.9408 13.6895 13.9416V20.6639H12.2651V23.8571H23.3988V20.6639H21.9744L21.9739 16.713Z" fill="#396827"/>
<path id="Vector_3" d="M18.4358 5.93558C17.8703 6.46502 16.9818 6.43518 16.4563 5.86606L15.3214 4.65594C14.8924 5.60196 15.0431 6.7563 15.7951 7.56407L15.9958 7.77677C16.7497 8.58195 17.8887 8.81205 18.8622 8.44807L22.852 12.7248C22.4193 13.6682 22.5713 14.8238 23.3265 15.6311L23.5236 15.842C24.2775 16.6498 25.4182 16.883 26.3934 16.5159L25.2601 15.3053C24.7288 14.737 24.7605 13.8493 25.3278 13.3209C25.8935 12.794 26.7812 12.8249 27.3106 13.3896L28.4439 14.6023C28.8742 13.6555 28.7222 12.5046 27.9684 11.696L27.7702 11.4823C27.0159 10.6771 25.8774 10.446 24.9023 10.8084L20.9135 6.53426C21.3425 5.58976 21.1942 4.43648 20.4385 3.62792L20.2401 3.41651C19.4873 2.60768 18.3475 2.37759 17.3706 2.74262L18.5055 3.95453C19.0323 4.52158 19.0028 5.41109 18.4357 5.93557L18.4358 5.93558Z" fill="#396827"/>
</g>
</g>
</svg>
