<svg width="33" height="33" viewBox="0 0 33 33" fill="none" xmlns="http://www.w3.org/2000/svg">
<g id="Roofing Tiles - iconSvg.co">
<path id="Vector" d="M15.5385 7.39344C15.9323 7.1659 16.2871 7.12049 16.5353 7.26307L29.0178 14.5212C28.0528 14.906 27.2588 15.9706 26.919 16.9675L14.0021 9.46188C14.2628 8.60594 14.872 7.77682 15.5385 7.39301L15.5385 7.39344ZM12.052 10.8891L13.6408 9.96962L26.4877 17.434L24.7416 18.4423C24.6217 18.2382 24.4601 18.0866 24.2777 18.0004C21.2216 16.2226 17.6502 14.1457 12.0521 10.8892L12.052 10.8891ZM9.5449 10.8585C9.92966 10.6337 10.293 10.5863 10.5408 10.7287L23.0183 17.9843C22.0588 18.3632 21.2507 19.4545 20.9123 20.4335C18.6731 19.1328 13.0142 15.8459 7.99984 12.9335C8.26009 12.0742 8.87165 11.2429 9.54477 10.8586L9.5449 10.8585ZM6.05196 14.3551L7.63934 13.441L20.4775 20.8979L20.2453 21.0334L18.749 21.906L18.7387 21.9001C18.6477 21.7566 18.4733 21.5625 18.2729 21.4634L6.05196 14.3551ZM14.7695 24.4576C14.747 24.566 14.7306 24.6717 14.7204 24.7757L1.88601 17.3226C1.88089 17.3155 1.86795 17.2843 1.86795 17.2225C1.86258 16.1749 2.6287 14.848 3.54351 14.3238C3.78179 14.1842 4.01177 14.1131 4.21151 14.1131C4.33407 14.1131 4.44515 14.14 4.53939 14.1942L17.0156 21.4485C16.9104 21.4891 16.8013 21.5416 16.6897 21.6053C15.7637 22.1451 14.9734 23.3213 14.7693 24.4573L14.7695 24.4576ZM29.9857 16.6782C29.9476 16.7007 29.9213 16.7085 29.9127 16.7149C29.9078 16.7009 29.9017 16.6748 29.9017 16.6306C29.8922 15.9324 29.3114 15.5889 28.6913 15.9456C28.1903 16.2383 27.8126 16.8972 27.8126 17.4778C27.8126 17.721 27.6271 18.0418 27.4164 18.1639L23.985 20.1436C23.9467 20.1663 23.9198 20.1741 23.9115 20.1802C23.9069 20.1668 23.901 20.1419 23.901 20.1004C23.901 19.3909 23.3082 19.0552 22.6986 19.41C22.1854 19.7054 21.8041 20.369 21.8117 20.9498C21.8117 21.1905 21.612 21.5218 21.4152 21.6297L17.9877 23.6068C17.9469 23.63 17.9193 23.6375 17.911 23.6437C17.9059 23.629 17.8998 23.6019 17.8998 23.5599C17.8998 23.2264 17.766 22.9579 17.5326 22.8229C17.2968 22.6864 16.9916 22.7066 16.6989 22.8751C16.193 23.1627 15.8029 23.8409 15.8107 24.4154C15.8107 24.5411 15.756 24.6996 15.6671 24.8402C15.5902 24.9511 15.4972 25.0436 15.4137 25.0953C15.3749 25.1178 15.3483 25.1244 15.338 25.1281C15.3378 25.1273 15.3373 25.1256 15.3371 25.1249C15.3329 25.1127 15.3268 25.0888 15.3268 25.048C15.3268 24.8966 15.3432 24.745 15.3781 24.5758C15.5534 23.6 16.2443 22.5831 16.9999 22.1429C17.5555 21.8256 18.129 21.8429 18.3099 22.4361C18.3698 22.6307 18.5934 22.7084 18.7592 22.6149C21.7345 20.8832 20.9379 21.3454 21.1085 21.2511C21.1679 21.2084 21.3576 21.1508 21.4 20.9723C21.6222 20.0362 22.2804 19.0951 23.0048 18.6811C23.5431 18.3617 24.108 18.361 24.3136 18.9777C24.3751 19.1613 24.5905 19.2475 24.7653 19.1464L27.2609 17.7033C27.3095 17.6752 27.3883 17.587 27.4074 17.5065C27.6535 16.4694 28.3561 15.6002 29.0048 15.2167C29.8254 14.7367 30.3776 15.2635 30.3854 15.9982C30.3845 16.2352 30.1962 16.558 29.9858 16.6784L29.9857 16.6782Z" fill="#396827"/>
</g>
</svg>
