<svg width="34" height="34" viewBox="0 0 34 34" fill="none" xmlns="http://www.w3.org/2000/svg">
<g id="Table Saw - iconSvg.co">
<path id="Vector" d="M31.8405 24.8416C31.4937 24.8449 31.157 24.9585 30.8787 25.1658L30.7845 25.239C30.3941 25.5894 30.199 26.1085 30.2618 26.6294V26.7183C30.3153 26.9728 30.4281 27.2112 30.5913 27.4135C30.8958 27.8032 31.3617 28.0322 31.8564 28.0356C32.2172 28.0384 32.5679 27.9165 32.8496 27.6906C33.2021 27.413 33.4229 27.0008 33.4584 26.5536C33.4942 26.1062 33.3414 25.6641 33.0374 25.3342C32.7331 25.0043 32.3051 24.8162 31.8564 24.8154L31.8405 24.8416Z" fill="#396827"/>
<g id="Clip path group">
<mask id="mask0_65_12332" style="mask-type:luminance" maskUnits="userSpaceOnUse" x="0" y="27" width="32" height="6">
<g id="b">
<path id="Vector_2" d="M0.271606 27.0273H31.4766V32.4062H0.271606V27.0273Z" fill="white"/>
</g>
</mask>
<g mask="url(#mask0_65_12332)">
<g id="Group">
<path id="Vector_3" d="M29.9851 27.8733C29.8242 27.6689 29.6989 27.4393 29.6139 27.1937L29.5773 27.084H0.272217V32.3584H31.4699V28.7514H31.3391H31.3394C30.797 28.6313 30.3161 28.3195 29.9853 27.8734L29.9851 27.8733Z" fill="#396827"/>
</g>
</g>
</g>
<path id="Vector_4" d="M2.67151 21.1084H6.97364V26.3358H2.67151V21.1084Z" fill="#396827"/>
<path id="Vector_5" d="M18.5054 24.2404C18.5067 24.0554 18.4338 23.8778 18.303 23.747C18.1726 23.6165 17.9949 23.5436 17.8099 23.5449H7.72083V24.9356H17.8099C17.9944 24.9356 18.1713 24.8624 18.3015 24.7319C18.432 24.6014 18.5054 24.4248 18.5054 24.2404Z" fill="#396827"/>
<path id="Vector_6" d="M16.2575 10.2036L16.3724 10.078C17.0658 9.30269 17.8754 8.63969 18.7719 8.11255L18.9496 8.00802L13.0949 2.13213C12.7593 1.81047 12.3106 1.63382 11.8454 1.64083C11.3793 1.6346 10.929 1.81099 10.591 2.13213C10.2628 2.45897 10.0781 2.90277 10.0781 3.36582C10.0781 3.82885 10.2628 4.27293 10.591 4.59952L16.2575 10.2036Z" fill="#396827"/>
<path id="Vector_7" d="M23.2727 19.7291C23.6263 19.732 23.9741 19.6417 24.2818 19.4679L24.4698 19.3634L21.5529 16.4775L21.4483 16.6656V16.6659C21.1101 17.3097 21.1308 18.0832 21.5031 18.7084C21.8753 19.3333 22.5454 19.7197 23.2727 19.7291Z" fill="#396827"/>
<g id="Clip path group_2">
<mask id="mask1_65_12332" style="mask-type:luminance" maskUnits="userSpaceOnUse" x="16" y="7" width="18" height="18">
<g id="a">
<path id="Vector_8" d="M16.7344 7.30469H33.7277V24.3047H16.7344V7.30469Z" fill="white"/>
</g>
</mask>
<g mask="url(#mask1_65_12332)">
<g id="Group_2">
<path id="Vector_9" d="M16.8957 10.6169L16.7964 10.7318L19.7185 13.6173L19.7761 13.6749L21.7888 15.6666L25.223 19.0906L27.8681 21.7043L27.9309 21.7619L30.4663 24.271L30.5812 24.1717H30.5815C32.9251 22.0615 34.0893 18.9388 33.6989 15.8091C33.3082 12.6798 31.4125 9.9387 28.6219 8.46927C25.8315 6.99976 22.4988 6.98761 19.6976 8.43632C18.6336 8.97795 17.6823 9.71776 16.8959 10.6163L16.8957 10.6169Z" fill="#396827"/>
</g>
</g>
</g>
<path id="Vector_10" d="M19.9637 21.8295C20.0827 21.8505 20.1854 21.926 20.2407 22.0334L21.0876 23.727L22.7499 22.8594C22.8025 22.8303 22.8622 22.8158 22.9224 22.8176C22.9828 22.8153 23.0425 22.8298 23.0949 22.8594L24.7781 23.727L25.6251 22.0334C25.678 21.9216 25.7846 21.8446 25.9073 21.8295L26.8274 21.7042L24.9978 19.8903L24.8881 19.9686C24.4175 20.3077 23.8525 20.4905 23.2725 20.4913C22.5244 20.49 21.8072 20.1922 21.278 19.663C20.7491 19.1341 20.4513 18.4169 20.4497 17.6685C20.4521 17.1074 20.6254 16.5603 20.9465 16.1002L21.0248 15.9539L19.3416 14.2969L18.0816 14.4904L18.3901 16.3565C18.4106 16.4782 18.3719 16.6027 18.2855 16.6912L16.9369 18.045L18.2855 19.3728C18.3717 19.4592 18.4106 19.5819 18.3901 19.702L18.0816 21.5736L19.9637 21.8295Z" fill="#396827"/>
</g>
</svg>
