<svg width="34" height="34" viewBox="0 0 34 34" fill="none" xmlns="http://www.w3.org/2000/svg">
<g id="Wall Painting - iconSvg.co">
<g id="Group">
<path id="Vector" d="M9.30753 3.26139C9.30753 3.17267 9.27226 3.08759 9.20974 3.02481C9.14696 2.96204 9.06188 2.92676 8.97317 2.92676H7.30033C7.11564 2.92676 6.9657 3.07669 6.9657 3.26139V5.859L9.30758 3.513L9.30753 3.26139Z" fill="#396827"/>
<path id="Vector_2" d="M20.41 12.1916C20.5408 12.3224 20.7524 12.3224 20.8832 12.1916L22.1615 10.9136C22.292 10.7831 22.292 10.5712 22.1615 10.4407L13.2292 1.49378C13.184 1.44968 13.127 1.41959 13.0652 1.40714C12.9493 1.37575 12.8258 1.40896 12.741 1.49378L3.80802 10.4407C3.67728 10.5712 3.67728 10.7831 3.80802 10.9136L5.08607 12.1916C5.21655 12.3224 5.42847 12.3224 5.55896 12.1916L12.9852 4.76675L20.41 12.1916Z" fill="#396827"/>
<path id="Vector_3" d="M17.2969 13.9895H19.344V12.546L12.9851 6.18652L6.62564 12.546V18.0042H5.96158C5.77689 18.0042 5.62695 18.1539 5.62695 18.3389V19.6771C5.62695 19.7658 5.66223 19.8509 5.72501 19.9137C5.78778 19.9764 5.87287 20.0115 5.96158 20.0115H15.2266C15.0728 19.6875 14.9926 19.3331 14.9923 18.9744V16.3648C14.984 15.7446 15.2219 15.1461 15.6538 14.701C16.0857 14.2556 16.6766 13.9999 17.2969 13.9895ZM10.98 10.9784C10.98 10.7937 11.1299 10.6438 11.3146 10.6438H14.6603H14.6601C14.7488 10.6438 14.8339 10.679 14.8967 10.7418C14.9594 10.8046 14.9947 10.8897 14.9947 10.9784V11.982H10.98L10.98 10.9784ZM12.6528 14.6585H11.3146C11.1299 14.6585 10.98 14.5088 10.98 14.3241V12.6513H12.6528L12.6528 14.6585ZM14.6603 14.6585H13.3221L13.3218 12.6512H14.9946V14.3241C14.9946 14.4128 14.9594 14.4979 14.8966 14.5606C14.8338 14.6232 14.7487 14.6584 14.66 14.6584L14.6603 14.6585Z" fill="#396827"/>
<path id="Vector_4" d="M31.0516 17.1677H29.3788V16.3649C29.3879 16.0105 29.2561 15.6673 29.0123 15.41C28.7682 15.1529 28.4325 15.003 28.0782 14.9932H17.2971C16.9428 15.003 16.6068 15.1529 16.3631 15.41C16.1192 15.6673 15.9874 16.0105 15.9963 16.3649V18.9744C15.9874 19.3288 16.1192 19.6722 16.3631 19.9293C16.6069 20.1864 16.9428 20.3363 17.2971 20.3461H28.0782C28.4325 20.3363 28.7682 20.1864 29.0123 19.9293C29.2561 19.6722 29.3879 19.3288 29.3788 18.9744V18.1716H30.5497V21.5173L22.6879 21.5171C22.4108 21.5171 22.1862 21.7417 22.1862 22.019V24.0265L20.6806 24.0262C20.3222 24.0262 19.9906 24.2176 19.8114 24.5281C19.6322 24.8387 19.6321 25.2213 19.8114 25.5317C19.9906 25.8422 20.3221 26.0337 20.6806 26.0337V30.7174C20.6806 31.4346 21.0633 32.0974 21.6842 32.4559C22.3052 32.8146 23.0705 32.8146 23.6917 32.4559C24.3127 32.0974 24.6953 31.4346 24.6953 30.7174V26.0337C25.0538 26.0337 25.3853 25.8423 25.5646 25.5317C25.7438 25.2212 25.7438 24.8386 25.5646 24.5281C25.3853 24.2176 25.0538 24.0262 24.6953 24.0262H23.1897V22.5209H31.0516C31.3289 22.5209 31.5535 22.296 31.5535 22.019V17.6696C31.5535 17.3926 31.3289 17.1677 31.0516 17.1677ZM17.2976 15.6624H28.0786C28.4462 15.6834 28.7281 15.9971 28.7102 16.3649V17.1213C28.2324 17.2391 28.1165 17.5898 27.454 17.5898C26.6586 17.5898 26.6586 17.0814 25.8631 17.0814C25.0675 17.0814 25.0683 17.5898 24.2734 17.5898C23.4789 17.5898 23.4792 17.0814 22.6849 17.0814C21.8906 17.0814 21.8909 17.5898 21.0968 17.5898C20.3026 17.5898 20.3026 17.0808 19.5099 17.0808C18.7169 17.0808 18.7156 17.5893 17.9213 17.5893C17.2601 17.5893 17.1441 17.2404 16.6673 17.1208V16.3649C16.6494 15.9976 16.9306 15.6842 17.2977 15.6624L17.2976 15.6624Z" fill="#396827"/>
</g>
</g>
</svg>
