<svg width="24" height="24" viewBox="0 0 24 24" fill="none" xmlns="http://www.w3.org/2000/svg">
<g id="843786_whatsapp_icon 1">
<g id="Group">
<path id="Vector" fill-rule="evenodd" clip-rule="evenodd" d="M19.6344 4.53501C17.6654 2.56377 15.0469 1.47771 12.2571 1.47656C6.50889 1.47656 1.83043 6.15464 1.82818 11.9046C1.82738 13.7428 2.30761 15.5368 3.22027 17.1184L1.74072 22.5225L7.26924 21.0723C8.79247 21.9031 10.5075 22.3411 12.253 22.3417H12.2572C12.2569 22.3417 12.2575 22.3417 12.2572 22.3417C18.0048 22.3417 22.6837 17.6631 22.6861 11.913C22.6871 9.12635 21.6033 6.50618 19.6344 4.53501ZM12.2572 20.5804H12.2536C10.6983 20.5798 9.17275 20.1619 7.84188 19.3721L7.52539 19.1843L4.24469 20.0449L5.1204 16.8462L4.91428 16.5182C4.04662 15.1382 3.58836 13.5431 3.58904 11.9052C3.5909 7.12606 7.47946 3.23792 12.2607 3.23792C14.5759 3.23864 16.7523 4.14148 18.3888 5.77991C20.0254 7.41833 20.9261 9.59617 20.9252 11.9123C20.9232 16.6918 17.0348 20.5804 12.2572 20.5804Z" fill="black"/>
<path id="Vector_2" fill-rule="evenodd" clip-rule="evenodd" d="M17.0118 14.0887C16.7512 13.9582 15.47 13.3279 15.2312 13.2409C14.9924 13.154 14.8186 13.1105 14.6449 13.3713C14.4712 13.6322 13.9718 14.2191 13.8198 14.3931C13.6678 14.5669 13.5158 14.5888 13.2553 14.4582C12.9947 14.3278 12.1551 14.0527 11.1598 13.1649C10.3851 12.4739 9.86211 11.6206 9.71005 11.3597C9.55807 11.0989 9.69388 10.9579 9.82435 10.8279C9.94157 10.7111 10.085 10.5236 10.2153 10.3714C10.3455 10.2193 10.3889 10.1105 10.4758 9.93671C10.5627 9.76276 10.5193 9.61058 10.4541 9.48019C10.3889 9.34976 9.86783 8.06715 9.6507 7.5453C9.43912 7.03726 9.22432 7.1061 9.06434 7.09801C8.91258 7.09043 8.73863 7.08887 8.56494 7.08887C8.39124 7.08887 8.10888 7.1541 7.87008 7.41492C7.63123 7.67582 6.95801 8.30629 6.95801 9.58877C6.95801 10.8714 7.89175 12.1105 8.02205 12.2844C8.15231 12.4584 9.85953 15.0903 12.4735 16.2191C13.0952 16.4876 13.5806 16.6479 13.959 16.7679C14.5833 16.9663 15.1514 16.9383 15.6003 16.8712C16.101 16.7964 17.1421 16.2409 17.3592 15.6322C17.5764 15.0235 17.5764 14.5017 17.5112 14.393C17.4461 14.2844 17.2723 14.2191 17.0118 14.0887Z" fill="black"/>
</g>
</g>
</svg>
